<?xml version="1.0" standalone="no"?>
<!DOCTYPE svg PUBLIC "-//W3C//DTD SVG 20010904//EN"
 "http://www.w3.org/TR/2001/REC-SVG-20010904/DTD/svg10.dtd">
<svg version="1.0" xmlns="http://www.w3.org/2000/svg"
 width="270.000000pt" height="270.000000pt" viewBox="0 0 270.000000 270.000000"
 preserveAspectRatio="xMidYMid meet">
<metadata>
Created by potrace 1.11, written by Peter Selinger 2001-2013
</metadata>
<g transform="translate(0.000000,270.000000) scale(0.100000,-0.100000)"
fill="#000000" stroke="none">
<path d="M1154 2525 c-602 -106 -1026 -628 -1001 -1230 17 -402 230 -764 572
-971 106 -65 211 -109 334 -141 130 -33 347 -42 477 -19 517 90 900 473 990
990 23 130 14 347 -19 477 -116 447 -443 767 -902 880 -107 27 -339 34 -451
14z m-176 -717 c3 -26 0 -28 -30 -28 -19 0 -43 -6 -54 -14 -18 -14 -19 -34
-25 -438 -5 -369 -8 -430 -23 -478 -42 -127 -147 -210 -268 -210 -36 0 -38 2
-38 30 0 26 4 30 26 30 44 0 89 29 115 73 l24 42 3 473 3 472 -26 10 c-15 6
-37 10 -51 10 -18 0 -24 5 -24 23 0 13 3 27 7 31 4 3 86 5 182 4 l176 -3 3
-27z m496 -320 c73 -191 135 -350 138 -353 6 -7 14 13 168 428 l103 278 126
-3 126 -3 3 -27 c3 -25 0 -28 -28 -28 -17 0 -40 -5 -51 -10 -18 -10 -19 -25
-19 -403 0 -292 3 -396 12 -405 7 -7 23 -12 38 -12 36 0 52 -14 48 -41 l-3
-24 -170 -1 c-98 -1 -175 3 -182 9 -7 5 -13 18 -13 28 0 14 10 20 39 25 70 11
66 -11 68 356 1 183 0 329 -3 323 -3 -5 -67 -176 -143 -380 -126 -337 -140
-370 -161 -370 -20 0 -36 35 -169 377 l-146 377 -3 -316 c-3 -342 0 -363 51
-363 41 0 67 -12 67 -30 0 -32 -23 -37 -155 -36 -129 1 -130 1 -133 25 -4 26
12 41 45 41 53 0 53 1 53 413 0 210 -4 388 -9 395 -4 8 -27 16 -50 19 -34 5
-41 9 -41 28 0 12 3 25 7 29 4 3 63 5 131 4 l125 -3 131 -347z"/>
</g>
</svg>
