<?xml version="1.0" standalone="no"?>
<!DOCTYPE svg PUBLIC "-//W3C//DTD SVG 20010904//EN"
 "http://www.w3.org/TR/2001/REC-SVG-20010904/DTD/svg10.dtd">
<svg version="1.0" xmlns="http://www.w3.org/2000/svg"
 width="270.000000pt" height="270.000000pt" viewBox="0 0 270.000000 270.000000"
 preserveAspectRatio="xMidYMid meet">
<metadata>
Created by potrace 1.11, written by Peter Selinger 2001-2013
</metadata>
<g transform="translate(0.000000,270.000000) scale(0.100000,-0.100000)"
fill="#000000" stroke="none">
<path d="M1145 2524 c-650 -116 -1085 -726 -980 -1374 70 -431 380 -797 795
-940 230 -79 531 -80 759 -4 361 121 644 404 765 765 76 228 75 529 -4 759
-143 415 -509 725 -940 795 -116 18 -288 18 -395 -1z m-170 -714 c0 -21 -6
-26 -39 -31 -67 -11 -66 -3 -66 -405 0 -201 -5 -397 -11 -441 -24 -175 -115
-277 -261 -290 l-58 -6 0 32 c0 28 3 31 31 31 43 0 93 33 113 73 31 67 37 166
34 576 -3 385 -4 403 -22 417 -11 8 -35 14 -53 14 -28 0 -33 4 -33 23 0 13 3
27 7 31 4 3 86 5 182 4 l176 -3 0 -25z m501 -330 c75 -195 136 -356 138 -357
1 -1 62 160 136 358 l135 360 125 -3 125 -3 3 -27 c3 -26 0 -28 -30 -28 -19 0
-43 -6 -54 -14 -18 -14 -19 -30 -19 -406 0 -433 -5 -404 68 -416 31 -5 37 -11
37 -30 0 -13 -4 -24 -10 -24 -85 -4 -342 0 -350 5 -5 3 -10 14 -10 24 0 14 11
20 45 25 29 5 49 14 55 26 7 12 9 137 8 342 l-3 323 -140 -377 c-133 -359
-141 -378 -165 -378 -24 0 -33 21 -170 377 l-145 376 -3 -323 c-3 -365 -5
-354 74 -366 34 -5 44 -11 44 -25 0 -10 -5 -21 -11 -24 -5 -4 -70 -7 -142 -7
l-132 0 -3 25 c-3 21 2 25 32 31 69 13 66 -4 66 426 0 375 -1 390 -19 400 -11
5 -33 10 -50 10 -26 0 -31 4 -31 23 0 13 3 27 7 31 4 3 63 5 131 4 l124 -3
134 -355z"/>
</g>
</svg>
